# xmcd
#
# Track frame offsets: 
#        182
#        31245
#        52907
#        73475
#        96557
#        207482
#        237170
#        254295
#
# Disc length: 4166 seconds
#
# Revision: 7
# Processed by: cddbd v1.5.2PL0 Copyright (c) Steve Scherf et al.
# Submitted via: ExactAudioCopy v1.3
#
DISCID=74104408
DTITLE=Fleetwood Mac - Live at the Boston Tea Party - Part One
DYEAR=1970
DGENRE=Blues Rock
TTITLE0=Black Magic Woman
TTITLE1=Jumping at Shadows
TTITLE2=Like it This Way
TTITLE3=Only You
TTITLE4=Rattlesnake Shake
TTITLE5=I Can't Hold Out
TTITLE6=Got to Move
TTITLE7=The Green Manalishi
EXTD=
EXTT0=
EXTT1=
EXTT2=
EXTT3=
EXTT4=
EXTT5=
EXTT6=
EXTT7=
PLAYORDER=
